<?xml version="1.0" encoding="utf-8"?><svg viewBox="0 0 56 56" xmlns="http://www.w3.org/2000/svg" xmlns:xlink="http://www.w3.org/1999/xlink"><style>:root>svg{display:none}:root>svg:target{display:block}</style><svg fill="none" viewBox="0 0 24 25" id="Path" xmlns="http://www.w3.org/2000/svg"><path d="m8.838 11.401 4.153 4.372c.45.474 1.265.541 2.174.095 2.312-.956 3.08-1.19 3.52-.727l4.774 5.025c.564.594.413 1.583-.218 2.247-3.276 3.45-8.602 3.45-11.878 0l-8.918-9.387c-3.26-3.431-3.26-8.983 0-12.415.644-.678 1.634-.845 2.22-.229l4.773 5.025c.414.436.192 1.247-.711 3.664-.42.944-.353 1.842.11 2.33Z" fill="#058491"/></svg><svg fill="none" viewBox="0 0 26 26" id="Subtract" xmlns="http://www.w3.org/2000/svg"><path fill-rule="evenodd" clip-rule="evenodd" d="M3 0a3 3 0 0 0-3 3v20a3 3 0 0 0 3 3h20a3 3 0 0 0 3-3V3a3 3 0 0 0-3-3H3Zm5.716 5.341c.864-1.312 2.19-2.146 3.677-2.314a6.077 6.077 0 0 1 1.683.077c1.823.367 3.403 1.885 3.845 3.693a5.72 5.72 0 0 1 .018 2.463c-.203.87-.617 1.608-1.293 2.306-.45.464-.863.775-1.373 1.031-.736.37-1.374.515-2.272.514-.878 0-1.548-.15-2.25-.503-.996-.5-1.909-1.433-2.361-2.411-.711-1.537-.581-3.48.326-4.856Zm6.741 2.298c-.156-.974-.958-1.816-1.922-2.019a3.275 3.275 0 0 0-.84-.039 2.488 2.488 0 0 0-1.924 1.38c-.198.4-.235.575-.235 1.102 0 .508.036.691.21 1.057.131.273.224.405.454.646a2.4 2.4 0 0 0 1.11.692c.273.081.806.11 1.112.061.511-.082.954-.317 1.345-.713.316-.321.506-.639.629-1.053.081-.276.11-.806.061-1.114ZM7.17 13.725c.13-.257.413-.495.707-.597.37-.127.834-.022 1.276.289.749.526 1.345.805 2.137 1 .696.172 1.02.212 1.724.212.864 0 1.371-.083 2.186-.354a4.99 4.99 0 0 0 1.39-.683c.427-.291.663-.416.904-.478.307-.079.654-.026.9.138.526.352.766 1.08.52 1.582-.081.165-.31.418-.566.624-.218.176-.852.602-1.107.745-.543.304-1.336.573-2.152.73-.248.048-1.022.168-1.083.168-.004 0 .84.846 1.876 1.88 1.036 1.033 1.934 1.945 1.994 2.025.199.267.28.62.215.936-.088.423-.505.882-.919 1.01a1.31 1.31 0 0 1-.918-.085c-.064-.032-.675-.623-1.671-1.617l-1.57-1.567-1.531 1.533c-.843.842-1.586 1.567-1.652 1.61-.357.23-.88.232-1.243.004a2.406 2.406 0 0 1-.538-.573 1.174 1.174 0 0 1 .004-1.11c.056-.106.494-.556 2.035-2.09 1.08-1.075 1.946-1.955 1.926-1.955-.118-.004-.974-.141-1.29-.208-.997-.21-1.724-.507-2.483-1.014-.655-.438-1.017-.767-1.157-1.054-.138-.283-.104-.727.086-1.101Z" fill="#fff"/></svg><svg fill="none" viewBox="0 0 18 19" id="Vector" xmlns="http://www.w3.org/2000/svg"><path d="m16.833 17.5-3.738-3.745m2.072-5.005A7.083 7.083 0 1 1 1 8.75a7.083 7.083 0 0 1 14.166 0v0Z" stroke="#058491" stroke-width="1.667" stroke-linecap="round"/></svg><svg fill="none" viewBox="0 0 26 27" id="Vector_(1)" xmlns="http://www.w3.org/2000/svg"><path d="M17.063 13.541A4.063 4.063 0 1 1 13 9.48a4.075 4.075 0 0 1 4.063 4.063Zm8.632-5.585v11.171a7.109 7.109 0 0 1-7.11 7.11H7.416a7.11 7.11 0 0 1-7.11-7.11V7.956a7.11 7.11 0 0 1 7.11-7.11h11.17a7.11 7.11 0 0 1 7.11 7.11Zm-6.601 5.585a6.094 6.094 0 1 0-12.188 0 6.094 6.094 0 0 0 12.188 0Zm2.031-6.601a1.523 1.523 0 1 0-3.047 0 1.523 1.523 0 0 0 3.047 0Z" fill="#fff"/></svg><svg fill="none" viewBox="0 0 26 26" id="Vector_(2)" xmlns="http://www.w3.org/2000/svg"><path d="M16.99 0H9.009C1.726 0-.001 1.727-.001 9.01v7.981c0 7.283 1.727 9.01 9.01 9.01h7.981c7.283 0 9.01-1.727 9.01-9.01V9.01C26 1.727 24.256 0 16.99 0Zm4 18.548h-1.888c-.715 0-.936-.567-2.222-1.87-1.117-1.084-1.612-1.228-1.887-1.228-.39 0-.5.11-.5.644v1.705c0 .458-.144.733-1.354.733-2.002 0-4.224-1.211-5.781-3.467-2.35-3.305-2.992-5.78-2.992-6.292 0-.276.11-.533.639-.533h1.891c.479 0 .66.22.847.732.935 2.7 2.493 5.065 3.135 5.065.238 0 .347-.11.347-.715v-2.789c-.072-1.286-.749-1.396-.749-1.853 0-.22.182-.44.474-.44h2.975c.402 0 .55.22.55.693v3.762c0 .407.181.55.291.55.238 0 .44-.143.88-.584 1.359-1.523 2.332-3.872 2.332-3.872.127-.276.347-.533.825-.533h1.892c.567 0 .694.291.567.698-.237 1.1-2.552 4.367-2.552 4.367-.199.33-.275.474 0 .842.203.275.864.846 1.303 1.358.809.918 1.43 1.689 1.596 2.222.186.529-.089.804-.622.804h.002Z" fill="#fff"/></svg><svg fill="none" viewBox="0 0 26 26" id="Vector_(3)" xmlns="http://www.w3.org/2000/svg"><path d="M4.747 0A4.737 4.737 0 0 0 0 4.747v16.506A4.737 4.737 0 0 0 4.747 26h8.946V15.836h-2.688v-3.66h2.688V9.05c0-2.457 1.588-4.712 5.246-4.712 1.482 0 2.577.142 2.577.142l-.086 3.418s-1.117-.011-2.336-.011c-1.32 0-1.531.608-1.531 1.617v2.672h3.972l-.174 3.66h-3.798V26h3.69A4.737 4.737 0 0 0 26 21.253V4.747A4.737 4.737 0 0 0 21.253 0H4.747Z" fill="#fff"/></svg><svg fill="none" viewBox="0 0 36 27" id="Vector_(4)" xmlns="http://www.w3.org/2000/svg"><path d="M35.244 4.805a4.506 4.506 0 0 0-3.135-3.129c-2.807-.75-14.09-.75-14.09-.75s-11.263-.018-14.1.75A4.506 4.506 0 0 0 .792 4.805a46.77 46.77 0 0 0-.784 8.713 47.402 47.402 0 0 0 .784 8.671 4.524 4.524 0 0 0 3.129 3.136c2.807.75 14.098.75 14.098.75s11.256 0 14.091-.75a4.525 4.525 0 0 0 3.135-3.136 47.17 47.17 0 0 0 .75-8.671 47.124 47.124 0 0 0-.75-8.713Zm-20.83 14.098V8.11l9.393 5.409-9.393 5.385Z" fill="#fff"/></svg><svg fill="none" viewBox="0 0 29 33" id="eye-visible-outlined-interface-symbol_icon-icons.com_57844_1" xmlns="http://www.w3.org/2000/svg"><path d="M14.5 17.77c.616 0 1.116-.57 1.116-1.27 0-.701-.5-1.27-1.116-1.27-.616 0-1.115.569-1.115 1.27 0 .7.5 1.27 1.115 1.27Z" fill="#058491"/><path d="M14.5 11.423c-2.454 0-4.461 2.285-4.461 5.077s2.007 5.077 4.461 5.077 4.462-2.285 4.462-5.077-2.008-5.077-4.462-5.077Zm0 8.885c-1.896 0-3.346-1.65-3.346-3.808s1.45-3.808 3.346-3.808c1.896 0 3.346 1.65 3.346 3.808s-1.45 3.808-3.346 3.808Z" fill="#058491"/><path d="M14.5 7.615C4.462 7.615 0 16.5 0 16.5s4.462 8.885 14.5 8.885S29 16.5 29 16.5s-4.462-8.885-14.5-8.885Zm0 16.5c-8.923 0-13.162-7.615-13.162-7.615S5.577 8.885 14.5 8.885c8.923 0 13.162 7.615 13.162 7.615s-4.239 7.615-13.162 7.615Z" fill="#058491"/></svg><svg fill="none" viewBox="0 0 26 26" id="fb" xmlns="http://www.w3.org/2000/svg"><g clip-path="url(#ia)"><path d="M4.747 0A4.737 4.737 0 0 0 0 4.747v16.506A4.737 4.737 0 0 0 4.747 26h8.946V15.836h-2.688v-3.66h2.688V9.05c0-2.457 1.588-4.712 5.246-4.712 1.482 0 2.577.142 2.577.142l-.086 3.418s-1.117-.011-2.336-.011c-1.32 0-1.531.608-1.531 1.617v2.672h3.972l-.174 3.66h-3.798V26h3.69A4.737 4.737 0 0 0 26 21.253V4.747A4.737 4.737 0 0 0 21.253 0H4.747Z" fill="#fff"/></g><defs><clipPath id="ia"><path fill="#fff" d="M0 0h26v26H0z"/></clipPath></defs></svg><svg fill="none" viewBox="0 0 12 16" id="map_marker" xmlns="http://www.w3.org/2000/svg"><g clip-path="url(#ja)"><path d="M5.538 0C2.48 0 0 2.7 0 6.031c0 1.114.2 2.265.775 3.094L5.538 16l4.764-6.875c.522-.753.775-2.085.775-3.094C11.077 2.701 8.597 0 5.538 0Zm0 3.493c1.287 0 2.331 1.137 2.331 2.538 0 1.402-1.043 2.538-2.33 2.538-1.288 0-2.331-1.136-2.331-2.538 0-1.401 1.043-2.538 2.33-2.538Z" fill="#058491"/></g><defs><clipPath id="ja"><path fill="#fff" d="M0 0h11.077v16H0z"/></clipPath></defs></svg><svg fill="none" viewBox="0 0 56 56" id="next" xmlns="http://www.w3.org/2000/svg"><g clip-path="url(#ka)" stroke="#058491"><rect x="1" y="1" width="54" height="54" rx="27" stroke-width="2"/><path d="m22.934 19 10.133 9.405L22.934 38" stroke-width="2.533"/></g><defs><clipPath id="ka"><path fill="#fff" d="M0 0h56v56H0z"/></clipPath></defs></svg><svg fill="none" viewBox="0 0 56 56" id="prev" xmlns="http://www.w3.org/2000/svg"><g clip-path="url(#la)"><g clip-path="url(#lb)" stroke="#fff"><rect x="-1" y="1" width="54" height="54" rx="27" transform="matrix(-1 0 0 1 54 0)" stroke-width="2"/><path d="m33.066 19-10.133 9.405L33.066 38" stroke-width="2.533"/></g></g><defs><clipPath id="la"><path fill="#fff" transform="matrix(-1 0 0 1 56 0)" d="M0 0h56v56H0z"/></clipPath><clipPath id="lb"><path fill="#fff" transform="matrix(-1 0 0 1 56 0)" d="M0 0h56v56H0z"/></clipPath></defs></svg></svg>